<mxfile host="Electron" modified="2023-10-29T22:00:58.192Z" agent="Mozilla/5.0 (X11; Linux x86_64) AppleWebKit/537.36 (KHTML, like Gecko) draw.io/22.0.3 Chrome/114.0.5735.289 Electron/25.8.4 Safari/537.36" etag="Hplvpw1SM-F0AblGdEDU" version="22.0.3" type="device">
  <diagram name="Page-1" id="Dm-IKqXdy3hoEIX7GcNT">
    <mxGraphModel dx="1434" dy="2012" grid="1" gridSize="10" guides="1" tooltips="1" connect="1" arrows="1" fold="1" page="1" pageScale="1" pageWidth="827" pageHeight="1169" math="0" shadow="0">
      <root>
        <mxCell id="0" />
        <mxCell id="1" parent="0" />
        <mxCell id="5VUNW5XuDFe2i3cA4m-3-3" value="" style="points=[[0.35,0,0],[0.98,0.51,0],[1,0.71,0],[0.67,1,0],[0,0.795,0],[0,0.65,0]];verticalLabelPosition=bottom;sketch=0;html=1;verticalAlign=top;aspect=fixed;align=center;pointerEvents=1;shape=mxgraph.cisco19.user;fillColor=#005073;strokeColor=none;" parent="1" vertex="1">
          <mxGeometry x="50" y="130" width="200" height="200" as="geometry" />
        </mxCell>
        <mxCell id="5VUNW5XuDFe2i3cA4m-3-4" value="&lt;font style=&quot;font-size: 24px;&quot; face=&quot;Comic Sans MS&quot;&gt;&lt;b&gt;USER&lt;/b&gt;&lt;/font&gt;" style="text;strokeColor=none;align=center;fillColor=none;html=1;verticalAlign=middle;whiteSpace=wrap;rounded=0;" parent="1" vertex="1">
          <mxGeometry x="60" y="50" width="160" height="90" as="geometry" />
        </mxCell>
        <mxCell id="5VUNW5XuDFe2i3cA4m-3-5" value="" style="aspect=fixed;perimeter=ellipsePerimeter;html=1;align=center;shadow=0;dashed=0;spacingTop=3;image;image=img/lib/active_directory/internet_cloud.svg;fontFamily=Comic Sans MS;fontSize=24;" parent="1" vertex="1">
          <mxGeometry x="360" y="50" width="168.25" height="106" as="geometry" />
        </mxCell>
        <mxCell id="5VUNW5XuDFe2i3cA4m-3-7" value="" style="fontColor=#0066CC;verticalAlign=top;verticalLabelPosition=bottom;labelPosition=center;align=center;html=1;outlineConnect=0;fillColor=#CCCCCC;strokeColor=#6881B3;gradientColor=none;gradientDirection=north;strokeWidth=2;shape=mxgraph.networks.load_balancer;fontFamily=Comic Sans MS;fontSize=24;" parent="1" vertex="1">
          <mxGeometry x="380" y="210" width="340" height="60" as="geometry" />
        </mxCell>
        <mxCell id="5VUNW5XuDFe2i3cA4m-3-8" value="" style="shape=flexArrow;endArrow=classic;startArrow=classic;html=1;rounded=0;fontFamily=Comic Sans MS;fontSize=24;exitX=1.002;exitY=0.859;exitDx=0;exitDy=0;exitPerimeter=0;" parent="1" edge="1">
          <mxGeometry width="100" height="100" relative="1" as="geometry">
            <mxPoint x="515.0000000000001" y="135.00400000000005" as="sourcePoint" />
            <mxPoint x="585" y="195" as="targetPoint" />
          </mxGeometry>
        </mxCell>
        <mxCell id="5VUNW5XuDFe2i3cA4m-3-10" value="&lt;font style=&quot;font-size: 24px;&quot; face=&quot;Comic Sans MS&quot;&gt;&lt;b&gt;HAproxy&lt;br&gt;(load-balancer)&lt;br&gt;&lt;/b&gt;&lt;/font&gt;" style="text;strokeColor=none;align=center;fillColor=none;html=1;verticalAlign=middle;whiteSpace=wrap;rounded=0;" parent="1" vertex="1">
          <mxGeometry x="590" y="120" width="180" height="90" as="geometry" />
        </mxCell>
        <mxCell id="5VUNW5XuDFe2i3cA4m-3-24" value="Server contents" style="points=[[0,0],[0.25,0],[0.5,0],[0.75,0],[1,0],[1,0.25],[1,0.5],[1,0.75],[1,1],[0.75,1],[0.5,1],[0.25,1],[0,1],[0,0.75],[0,0.5],[0,0.25]];outlineConnect=0;gradientColor=none;html=1;whiteSpace=wrap;fontSize=12;fontStyle=0;container=1;pointerEvents=0;collapsible=0;recursiveResize=0;shape=mxgraph.aws4.group;grIcon=mxgraph.aws4.group_on_premise;strokeColor=#5A6C86;fillColor=none;verticalAlign=top;align=left;spacingLeft=30;fontColor=#5A6C86;dashed=0;fontFamily=Comic Sans MS;" parent="1" vertex="1">
          <mxGeometry x="268.25" y="320" width="260" height="270" as="geometry" />
        </mxCell>
        <mxCell id="5VUNW5XuDFe2i3cA4m-3-25" value="" style="sketch=0;outlineConnect=0;fontColor=#232F3E;gradientColor=none;fillColor=#2E27AD;strokeColor=none;dashed=0;verticalLabelPosition=bottom;verticalAlign=top;align=center;html=1;fontSize=12;fontStyle=0;aspect=fixed;pointerEvents=1;shape=mxgraph.aws4.rds_sql_server_instance;fontFamily=Comic Sans MS;" parent="5VUNW5XuDFe2i3cA4m-3-24" vertex="1">
          <mxGeometry x="160" y="180" width="70" height="70" as="geometry" />
        </mxCell>
        <mxCell id="5VUNW5XuDFe2i3cA4m-3-26" value="" style="sketch=0;aspect=fixed;pointerEvents=1;shadow=0;dashed=0;html=1;strokeColor=none;labelPosition=center;verticalLabelPosition=bottom;verticalAlign=top;align=center;fillColor=#00188D;shape=mxgraph.mscae.enterprise.web_server;fontFamily=Comic Sans MS;fontSize=24;" parent="5VUNW5XuDFe2i3cA4m-3-24" vertex="1">
          <mxGeometry x="44.5" y="45.52" width="77" height="101.32" as="geometry" />
        </mxCell>
        <mxCell id="5VUNW5XuDFe2i3cA4m-3-28" value="" style="sketch=0;pointerEvents=1;shadow=0;dashed=0;html=1;strokeColor=none;fillColor=#505050;labelPosition=center;verticalLabelPosition=bottom;verticalAlign=top;outlineConnect=0;align=center;shape=mxgraph.office.servers.server_side_code;fontFamily=Comic Sans MS;fontSize=24;" parent="5VUNW5XuDFe2i3cA4m-3-24" vertex="1">
          <mxGeometry x="55.5" y="177" width="66" height="73" as="geometry" />
        </mxCell>
        <mxCell id="5VUNW5XuDFe2i3cA4m-3-29" value="" style="outlineConnect=0;dashed=0;verticalLabelPosition=bottom;verticalAlign=top;align=center;html=1;shape=mxgraph.aws3.android;fillColor=#5A69A4;gradientColor=none;fontFamily=Comic Sans MS;fontSize=24;" parent="5VUNW5XuDFe2i3cA4m-3-24" vertex="1">
          <mxGeometry x="58.5" y="160" width="30" height="40" as="geometry" />
        </mxCell>
        <mxCell id="5VUNW5XuDFe2i3cA4m-3-31" value="codebase" style="text;strokeColor=none;align=center;fillColor=none;html=1;verticalAlign=middle;whiteSpace=wrap;rounded=0;fontSize=15;fontFamily=Comic Sans MS;" parent="5VUNW5XuDFe2i3cA4m-3-24" vertex="1">
          <mxGeometry x="43.5" y="239.99999999999997" width="60" height="30" as="geometry" />
        </mxCell>
        <mxCell id="5VUNW5XuDFe2i3cA4m-3-32" value="web server" style="text;strokeColor=none;align=center;fillColor=none;html=1;verticalAlign=middle;whiteSpace=wrap;rounded=0;fontSize=15;fontFamily=Comic Sans MS;" parent="5VUNW5XuDFe2i3cA4m-3-24" vertex="1">
          <mxGeometry x="35" y="11.840000000000003" width="86.5" height="30" as="geometry" />
        </mxCell>
        <mxCell id="5VUNW5XuDFe2i3cA4m-3-33" value="app server" style="text;strokeColor=none;align=center;fillColor=none;html=1;verticalAlign=middle;whiteSpace=wrap;rounded=0;fontSize=15;fontFamily=Comic Sans MS;" parent="5VUNW5XuDFe2i3cA4m-3-24" vertex="1">
          <mxGeometry x="151.75" y="11.840000000000003" width="86.5" height="30" as="geometry" />
        </mxCell>
        <mxCell id="5VUNW5XuDFe2i3cA4m-3-51" value="" style="endArrow=classic;startArrow=classic;html=1;rounded=0;fontFamily=Comic Sans MS;fontSize=15;" parent="5VUNW5XuDFe2i3cA4m-3-24" edge="1">
          <mxGeometry width="50" height="50" relative="1" as="geometry">
            <mxPoint x="93.5" y="90" as="sourcePoint" />
            <mxPoint x="153.5" y="90" as="targetPoint" />
          </mxGeometry>
        </mxCell>
        <mxCell id="5VUNW5XuDFe2i3cA4m-3-52" value="" style="endArrow=classic;startArrow=classic;html=1;rounded=0;fontFamily=Comic Sans MS;fontSize=15;" parent="5VUNW5XuDFe2i3cA4m-3-24" edge="1">
          <mxGeometry width="50" height="50" relative="1" as="geometry">
            <mxPoint x="194.74" y="178" as="sourcePoint" />
            <mxPoint x="194.74" y="148" as="targetPoint" />
          </mxGeometry>
        </mxCell>
        <mxCell id="5VUNW5XuDFe2i3cA4m-3-53" value="" style="endArrow=classic;startArrow=classic;html=1;rounded=0;fontFamily=Comic Sans MS;fontSize=15;" parent="5VUNW5XuDFe2i3cA4m-3-24" edge="1">
          <mxGeometry width="50" height="50" relative="1" as="geometry">
            <mxPoint x="58.5" y="166.83999999999997" as="sourcePoint" />
            <mxPoint x="58.5" y="146.83999999999997" as="targetPoint" />
          </mxGeometry>
        </mxCell>
        <mxCell id="5VUNW5XuDFe2i3cA4m-3-54" value="Server contents" style="points=[[0,0],[0.25,0],[0.5,0],[0.75,0],[1,0],[1,0.25],[1,0.5],[1,0.75],[1,1],[0.75,1],[0.5,1],[0.25,1],[0,1],[0,0.75],[0,0.5],[0,0.25]];outlineConnect=0;gradientColor=none;html=1;whiteSpace=wrap;fontSize=12;fontStyle=0;container=1;pointerEvents=0;collapsible=0;recursiveResize=0;shape=mxgraph.aws4.group;grIcon=mxgraph.aws4.group_on_premise;strokeColor=#5A6C86;fillColor=none;verticalAlign=top;align=left;spacingLeft=30;fontColor=#5A6C86;dashed=0;fontFamily=Comic Sans MS;" parent="1" vertex="1">
          <mxGeometry x="550" y="320" width="260" height="270" as="geometry" />
        </mxCell>
        <mxCell id="5VUNW5XuDFe2i3cA4m-3-55" value="" style="sketch=0;outlineConnect=0;fontColor=#232F3E;gradientColor=none;fillColor=#2E27AD;strokeColor=none;dashed=0;verticalLabelPosition=bottom;verticalAlign=top;align=center;html=1;fontSize=12;fontStyle=0;aspect=fixed;pointerEvents=1;shape=mxgraph.aws4.rds_sql_server_instance;fontFamily=Comic Sans MS;" parent="5VUNW5XuDFe2i3cA4m-3-54" vertex="1">
          <mxGeometry x="160" y="180" width="70" height="70" as="geometry" />
        </mxCell>
        <mxCell id="5VUNW5XuDFe2i3cA4m-3-56" value="" style="sketch=0;aspect=fixed;pointerEvents=1;shadow=0;dashed=0;html=1;strokeColor=none;labelPosition=center;verticalLabelPosition=bottom;verticalAlign=top;align=center;fillColor=#00188D;shape=mxgraph.mscae.enterprise.web_server;fontFamily=Comic Sans MS;fontSize=24;" parent="5VUNW5XuDFe2i3cA4m-3-54" vertex="1">
          <mxGeometry x="44.5" y="45.52" width="77" height="101.32" as="geometry" />
        </mxCell>
        <mxCell id="5VUNW5XuDFe2i3cA4m-3-58" value="" style="sketch=0;pointerEvents=1;shadow=0;dashed=0;html=1;strokeColor=none;fillColor=#505050;labelPosition=center;verticalLabelPosition=bottom;verticalAlign=top;outlineConnect=0;align=center;shape=mxgraph.office.servers.server_side_code;fontFamily=Comic Sans MS;fontSize=24;" parent="5VUNW5XuDFe2i3cA4m-3-54" vertex="1">
          <mxGeometry x="55.5" y="177" width="66" height="73" as="geometry" />
        </mxCell>
        <mxCell id="5VUNW5XuDFe2i3cA4m-3-59" value="" style="outlineConnect=0;dashed=0;verticalLabelPosition=bottom;verticalAlign=top;align=center;html=1;shape=mxgraph.aws3.android;fillColor=#5A69A4;gradientColor=none;fontFamily=Comic Sans MS;fontSize=24;" parent="5VUNW5XuDFe2i3cA4m-3-54" vertex="1">
          <mxGeometry x="58.5" y="160" width="30" height="40" as="geometry" />
        </mxCell>
        <mxCell id="5VUNW5XuDFe2i3cA4m-3-60" value="codebase" style="text;strokeColor=none;align=center;fillColor=none;html=1;verticalAlign=middle;whiteSpace=wrap;rounded=0;fontSize=15;fontFamily=Comic Sans MS;" parent="5VUNW5XuDFe2i3cA4m-3-54" vertex="1">
          <mxGeometry x="43.5" y="239.99999999999997" width="60" height="30" as="geometry" />
        </mxCell>
        <mxCell id="5VUNW5XuDFe2i3cA4m-3-61" value="web server" style="text;strokeColor=none;align=center;fillColor=none;html=1;verticalAlign=middle;whiteSpace=wrap;rounded=0;fontSize=15;fontFamily=Comic Sans MS;" parent="5VUNW5XuDFe2i3cA4m-3-54" vertex="1">
          <mxGeometry x="35" y="11.840000000000003" width="86.5" height="30" as="geometry" />
        </mxCell>
        <mxCell id="5VUNW5XuDFe2i3cA4m-3-62" value="app server" style="text;strokeColor=none;align=center;fillColor=none;html=1;verticalAlign=middle;whiteSpace=wrap;rounded=0;fontSize=15;fontFamily=Comic Sans MS;" parent="5VUNW5XuDFe2i3cA4m-3-54" vertex="1">
          <mxGeometry x="151.75" y="11.840000000000003" width="86.5" height="30" as="geometry" />
        </mxCell>
        <mxCell id="5VUNW5XuDFe2i3cA4m-3-64" value="" style="endArrow=classic;startArrow=classic;html=1;rounded=0;fontFamily=Comic Sans MS;fontSize=15;" parent="5VUNW5XuDFe2i3cA4m-3-54" edge="1">
          <mxGeometry width="50" height="50" relative="1" as="geometry">
            <mxPoint x="194.74" y="178" as="sourcePoint" />
            <mxPoint x="194.74" y="148" as="targetPoint" />
          </mxGeometry>
        </mxCell>
        <mxCell id="5VUNW5XuDFe2i3cA4m-3-65" value="" style="endArrow=classic;startArrow=classic;html=1;rounded=0;fontFamily=Comic Sans MS;fontSize=15;" parent="5VUNW5XuDFe2i3cA4m-3-54" edge="1">
          <mxGeometry width="50" height="50" relative="1" as="geometry">
            <mxPoint x="58.5" y="166.83999999999997" as="sourcePoint" />
            <mxPoint x="58.5" y="146.83999999999997" as="targetPoint" />
          </mxGeometry>
        </mxCell>
        <mxCell id="5VUNW5XuDFe2i3cA4m-3-67" value="" style="shape=flexArrow;endArrow=classic;startArrow=classic;html=1;rounded=0;fontFamily=Comic Sans MS;fontSize=15;endWidth=7.324571173980842;endSize=4.800000000000001;startWidth=7.324571173980842;startSize=5.290243902439025;width=4.146341463414634;" parent="1" edge="1">
          <mxGeometry width="100" height="100" relative="1" as="geometry">
            <mxPoint x="430" y="314" as="sourcePoint" />
            <mxPoint x="470" y="276" as="targetPoint" />
          </mxGeometry>
        </mxCell>
        <mxCell id="5VUNW5XuDFe2i3cA4m-3-68" value="" style="shape=flexArrow;endArrow=classic;startArrow=classic;html=1;rounded=0;fontFamily=Comic Sans MS;fontSize=15;endWidth=7.324571173980842;endSize=3.448076923076923;startWidth=7.324571173980842;startSize=4.309302325581395;width=4.883720930232558;" parent="1" edge="1">
          <mxGeometry width="100" height="100" relative="1" as="geometry">
            <mxPoint x="628.5549132947976" y="314.99999999999994" as="sourcePoint" />
            <mxPoint x="600" y="277" as="targetPoint" />
          </mxGeometry>
        </mxCell>
        <mxCell id="5VUNW5XuDFe2i3cA4m-3-69" value="&lt;font style=&quot;font-size: 24px;&quot; face=&quot;Comic Sans MS&quot;&gt;&lt;b&gt;Internet&lt;/b&gt;&lt;/font&gt;" style="text;strokeColor=none;align=center;fillColor=none;html=1;verticalAlign=middle;whiteSpace=wrap;rounded=0;" parent="1" vertex="1">
          <mxGeometry x="360" y="-10" width="160" height="90" as="geometry" />
        </mxCell>
        <mxCell id="5VUNW5XuDFe2i3cA4m-3-71" value="" style="swimlane;startSize=0;fontFamily=Comic Sans MS;fontSize=15;fontColor=#ffffff;labelBorderColor=#ffffff;" parent="1" vertex="1">
          <mxGeometry x="30" width="790" height="640" as="geometry" />
        </mxCell>
        <mxCell id="5VUNW5XuDFe2i3cA4m-3-73" value="8.8.8.8" style="text;strokeColor=none;align=center;fillColor=none;html=1;verticalAlign=middle;whiteSpace=wrap;rounded=0;fontSize=15;fontFamily=Comic Sans MS;fontColor=#000000;" parent="5VUNW5XuDFe2i3cA4m-3-71" vertex="1">
          <mxGeometry x="476.5" y="230" width="60" height="30" as="geometry" />
        </mxCell>
        <mxCell id="mGFjGQ7MWbVN0X6tl37q-16" value="" style="image;aspect=fixed;perimeter=ellipsePerimeter;html=1;align=center;shadow=0;dashed=0;fontColor=#4277BB;labelBackgroundColor=default;fontSize=12;spacingTop=3;image=img/lib/ibm/applications/app_server.svg;" vertex="1" parent="5VUNW5XuDFe2i3cA4m-3-71">
          <mxGeometry x="393" y="373" width="90" height="90" as="geometry" />
        </mxCell>
        <mxCell id="mGFjGQ7MWbVN0X6tl37q-17" value="" style="endArrow=classic;startArrow=classic;html=1;rounded=0;fontFamily=Comic Sans MS;fontSize=15;" edge="1" parent="5VUNW5XuDFe2i3cA4m-3-71">
          <mxGeometry width="50" height="50" relative="1" as="geometry">
            <mxPoint x="613" y="410" as="sourcePoint" />
            <mxPoint x="673" y="410" as="targetPoint" />
          </mxGeometry>
        </mxCell>
        <mxCell id="mGFjGQ7MWbVN0X6tl37q-18" value="" style="image;aspect=fixed;perimeter=ellipsePerimeter;html=1;align=center;shadow=0;dashed=0;fontColor=#4277BB;labelBackgroundColor=default;fontSize=12;spacingTop=3;image=img/lib/ibm/applications/app_server.svg;" vertex="1" parent="5VUNW5XuDFe2i3cA4m-3-71">
          <mxGeometry x="674.25" y="373" width="90" height="90" as="geometry" />
        </mxCell>
        <mxCell id="mGFjGQ7MWbVN0X6tl37q-15" value="HTTP response" style="text;html=1;strokeColor=none;fillColor=none;align=center;verticalAlign=middle;whiteSpace=wrap;rounded=0;rotation=-40;fontSize=16;flipV=0;" vertex="1" parent="5VUNW5XuDFe2i3cA4m-3-71">
          <mxGeometry x="240" y="180" width="120" height="30" as="geometry" />
        </mxCell>
        <mxCell id="mGFjGQ7MWbVN0X6tl37q-14" value="HTTP request" style="text;html=1;strokeColor=none;fillColor=none;align=center;verticalAlign=middle;whiteSpace=wrap;rounded=0;rotation=-40;fontSize=17;" vertex="1" parent="5VUNW5XuDFe2i3cA4m-3-71">
          <mxGeometry x="200" y="140" width="120" height="30" as="geometry" />
        </mxCell>
        <mxCell id="mGFjGQ7MWbVN0X6tl37q-19" value="www.fobar.com" style="text;strokeColor=#3700CC;align=center;fillColor=#6a00ff;html=1;verticalAlign=bottom;whiteSpace=wrap;rounded=0;fontSize=15;fontFamily=Comic Sans MS;fontColor=#ffffff;" vertex="1" parent="5VUNW5XuDFe2i3cA4m-3-71">
          <mxGeometry x="98" y="233" width="112" height="17" as="geometry" />
        </mxCell>
        <mxCell id="mGFjGQ7MWbVN0X6tl37q-8" value="" style="shape=flexArrow;endArrow=classic;startArrow=classic;html=1;rounded=0;fontFamily=Comic Sans MS;fontSize=24;entryX=0;entryY=0.75;entryDx=0;entryDy=0;exitX=1;exitY=0;exitDx=0;exitDy=0;" edge="1" parent="1">
          <mxGeometry width="100" height="100" relative="1" as="geometry">
            <mxPoint x="250" y="225" as="sourcePoint" />
            <mxPoint x="370" y="124" as="targetPoint" />
          </mxGeometry>
        </mxCell>
        <mxCell id="mGFjGQ7MWbVN0X6tl37q-9" value="&lt;font color=&quot;#003300&quot;&gt;ISP(resolver),&lt;br&gt;Root Server,&lt;br&gt;Domain Server,&lt;br&gt;Name Server&lt;/font&gt;" style="text;strokeColor=none;align=center;fillColor=none;html=1;verticalAlign=middle;whiteSpace=wrap;rounded=0;fontSize=15;fontFamily=Comic Sans MS;" vertex="1" parent="1">
          <mxGeometry x="390" y="60" width="120" height="80" as="geometry" />
        </mxCell>
        <mxCell id="mGFjGQ7MWbVN0X6tl37q-10" value="8.8.8.9" style="text;strokeColor=#A50040;align=center;fillColor=#d80073;html=1;verticalAlign=middle;whiteSpace=wrap;rounded=0;fontSize=15;fontFamily=Comic Sans MS;fontColor=#ffffff;" vertex="1" parent="1">
          <mxGeometry x="260" y="390" width="60" height="30" as="geometry" />
        </mxCell>
        <mxCell id="mGFjGQ7MWbVN0X6tl37q-11" value="8.8.8.10" style="text;strokeColor=#A50040;align=center;fillColor=#d80073;html=1;verticalAlign=middle;whiteSpace=wrap;rounded=0;fontSize=15;fontFamily=Comic Sans MS;fontColor=#ffffff;" vertex="1" parent="1">
          <mxGeometry x="550" y="390" width="60" height="30" as="geometry" />
        </mxCell>
        <mxCell id="mGFjGQ7MWbVN0X6tl37q-12" value="Master" style="text;strokeColor=none;fillColor=none;html=1;fontSize=18;fontStyle=1;verticalAlign=middle;align=center;" vertex="1" parent="1">
          <mxGeometry x="410" y="590" width="90" height="30" as="geometry" />
        </mxCell>
        <mxCell id="mGFjGQ7MWbVN0X6tl37q-13" value="Slave" style="text;strokeColor=none;fillColor=none;html=1;fontSize=18;fontStyle=1;verticalAlign=middle;align=center;" vertex="1" parent="1">
          <mxGeometry x="710" y="590" width="90" height="30" as="geometry" />
        </mxCell>
      </root>
    </mxGraphModel>
  </diagram>
</mxfile>
